<svg id="akiflow" role="img" viewBox="0 0 35.07 32" xmlns="http://www.w3.org/2000/svg">
  <title>Akiflow</title>
  <path d="M12.5,0h-.17C11.14,0,10.08.75,9.68,1.87L.17,28.22c-.66,1.84.7,3.78,2.66,3.78h10.46c1.2,0,2.27-.76,2.66-1.89l1.58-4.51,1.58,4.51c.4,1.13,1.47,1.89,2.66,1.89h10.46c1.96,0,3.32-1.94,2.66-3.78L25.39,1.87C24.98.75,23.92,0,22.73,0h-10.2s-.02,0-.03,0ZM16.2,21.81l-5.45-15.53L2.53,29.07c-.07.2.08.42.3.42h10.46c.13,0,.25-.08.3-.21l2.62-7.47ZM12.53,2.51c-.22,0-.37.21-.3.42l9.25,26.35c.04.13.16.21.3.21h10.46c.22,0,.37-.22.3-.42L23.03,2.72c-.04-.12-.16-.21-.3-.21h-10.2Z" style="fill: #212833; fill-rule: evenodd;"/>
  <path d="M9.87,3.76C9.22,1.92,10.58,0,12.53,0h10.2C23.92,0,24.98.75,25.39,1.87l9.51,26.35c.66,1.84-.7,3.78-2.66,3.78h-10.46c-1.2,0-2.27-.76-2.66-1.89L9.87,3.76ZM12.53,2.51c-.22,0-.37.21-.3.42l9.25,26.35c.04.13.16.21.3.21h10.46c.22,0,.37-.22.3-.42L23.03,2.72c-.04-.12-.16-.21-.3-.21h-10.2Z" style="fill: #212833; fill-rule: evenodd;"/>
</svg>
